<?xml version="1.0" encoding="UTF-8" standalone="no"?>
<svg
   width="132.90909pt"
   height="132.90909pt"
   viewBox="0 0 132.90908 132.90908"
   version="1.1"
   id="svg42"
   sodipodi:docname="background.svg"
   inkscape:version="1.1.2 (0a00cf5339, 2022-02-04)"
   xmlns:inkscape="http://www.inkscape.org/namespaces/inkscape"
   xmlns:sodipodi="http://sodipodi.sourceforge.net/DTD/sodipodi-0.dtd"
   xmlns:xlink="http://www.w3.org/1999/xlink"
   xmlns="http://www.w3.org/2000/svg"
   xmlns:svg="http://www.w3.org/2000/svg"
   xmlns:rdf="http://www.w3.org/1999/02/22-rdf-syntax-ns#"
   xmlns:cc="http://creativecommons.org/ns#"
   xmlns:dc="http://purl.org/dc/elements/1.1/">
  <sodipodi:namedview
     id="namedview44"
     pagecolor="#ffffff"
     bordercolor="#666666"
     borderopacity="1.0"
     inkscape:pageshadow="2"
     inkscape:pageopacity="0.0"
     inkscape:pagecheckerboard="0"
     inkscape:document-units="pt"
     showgrid="false"
     fit-margin-top="0"
     fit-margin-left="0"
     fit-margin-right="0"
     fit-margin-bottom="0"
     inkscape:zoom="2"
     inkscape:cx="-64"
     inkscape:cy="63.5"
     inkscape:window-width="3440"
     inkscape:window-height="1353"
     inkscape:window-x="0"
     inkscape:window-y="46"
     inkscape:window-maximized="1"
     inkscape:current-layer="axes_1"
     inkscape:lockguides="true"
     scale-x="1" />
  <metadata
     id="metadata2">
    <rdf:RDF>
      <cc:Work>
        <dc:type
           rdf:resource="http://purl.org/dc/dcmitype/StillImage" />
        <dc:date>2024-06-13T12:23:27.549147</dc:date>
        <dc:format>image/svg+xml</dc:format>
        <dc:creator>
          <cc:Agent>
            <dc:title>Matplotlib v3.8.3, https://matplotlib.org/</dc:title>
          </cc:Agent>
        </dc:creator>
      </cc:Work>
    </rdf:RDF>
  </metadata>
  <defs
     id="defs6">
    <style
       type="text/css"
       id="style4">*{stroke-linejoin: round; stroke-linecap: butt}</style>
  </defs>
  <g
     id="figure_1"
     transform="translate(-12.745455,-12.745455)">
    <g
       id="axes_1">
      <g
         id="line2d_1">
        <path
           d="M 13.745455,13.745455 33.329351,27.324226 19.550721,41.855474 128.0314,44.817516 22.069135,96.983554 141.07388,120.99372 l -16.60216,8.88419 20.18283,14.77664"
           clip-path="url(#p970adb2d74)"
           style="fill:none;stroke:#228b22;stroke-linecap:square;stroke-opacity:0.07"
           id="path8" />
        <defs
           id="defs11">
          <path
             id="m70b5f1c595"
             d="M 0,0.5 C 0.132602,0.5 0.25979,0.447317 0.353553,0.353553 0.447317,0.25979 0.5,0.132602 0.5,0 0.5,-0.132602 0.447317,-0.25979 0.353553,-0.353553 0.25979,-0.447317 0.132602,-0.5 0,-0.5 c -0.132602,0 -0.25979,0.052683 -0.353553,0.146447 C -0.447317,-0.25979 -0.5,-0.132602 -0.5,0 c 0,0.132602 0.052683,0.25979 0.146447,0.353553 C -0.25979,0.447317 -0.132602,0.5 0,0.5 Z"
             style="stroke:#228b22;stroke-opacity:0.07" />
        </defs>
        <g
           clip-path="url(#p970adb2d74)"
           id="g29">
          <use
             xlink:href="#m70b5f1c595"
             x="13.745455"
             y="13.745455"
             style="fill:#228b22;fill-opacity:0.07;stroke:#228b22;stroke-opacity:0.07"
             id="use13"
             width="100%"
             height="100%" />
          <use
             xlink:href="#m70b5f1c595"
             x="33.32935"
             y="27.324226"
             style="fill:#228b22;fill-opacity:0.07;stroke:#228b22;stroke-opacity:0.07"
             id="use15"
             width="100%"
             height="100%" />
          <use
             xlink:href="#m70b5f1c595"
             x="19.55072"
             y="41.855473"
             style="fill:#228b22;fill-opacity:0.07;stroke:#228b22;stroke-opacity:0.07"
             id="use17"
             width="100%"
             height="100%" />
          <use
             xlink:href="#m70b5f1c595"
             x="128.0314"
             y="44.817516"
             style="fill:#228b22;fill-opacity:0.07;stroke:#228b22;stroke-opacity:0.07"
             id="use19"
             width="100%"
             height="100%" />
          <use
             xlink:href="#m70b5f1c595"
             x="22.069136"
             y="96.983551"
             style="fill:#228b22;fill-opacity:0.07;stroke:#228b22;stroke-opacity:0.07"
             id="use21"
             width="100%"
             height="100%" />
          <use
             xlink:href="#m70b5f1c595"
             x="141.07388"
             y="120.99372"
             style="fill:#228b22;fill-opacity:0.07;stroke:#228b22;stroke-opacity:0.07"
             id="use23"
             width="100%"
             height="100%" />
          <use
             xlink:href="#m70b5f1c595"
             x="124.47172"
             y="129.87791"
             style="fill:#228b22;fill-opacity:0.07;stroke:#228b22;stroke-opacity:0.07"
             id="use25"
             width="100%"
             height="100%" />
          <use
             xlink:href="#m70b5f1c595"
             x="144.65454"
             y="144.65454"
             style="fill:#228b22;fill-opacity:0.07;stroke:#228b22;stroke-opacity:0.07"
             id="use27"
             width="100%"
             height="100%" />
        </g>
      </g>
      <g
         id="line2d_2">
        <path
           d="m 13.745455,13.745455 0.6731,0.468122 0.815306,0.575237 0.931872,0.673088 1.022799,0.761674 1.088086,0.840999 1.127733,0.911059 1.141742,0.971855 1.130111,1.023389 1.092841,1.065658 1.02993,1.098665 0.941381,1.122408 0.827193,1.136887 0.687364,1.142103 0.521897,1.138056 0.339462,1.125396 0.193581,1.108146 0.104651,1.087839 0.07271,1.064475 0.09776,1.038058 0.179799,1.008585 0.318829,0.976058 0.514848,0.940475 0.76786,0.901837 1.077859,0.860145 1.44485,0.815397 1.868831,0.767595 2.349801,0.716738 2.887763,0.662825 3.472023,0.607348 3.997556,0.564949 4.404749,0.543937 4.692918,0.544409 4.862063,0.566364 4.912184,0.609802 4.843281,0.674723 4.655354,0.761128 4.348403,0.869016 3.922428,0.998388 3.377429,1.149242 2.713406,1.32158 1.930359,1.515402 1.028288,1.730705 0.01572,1.965975 -0.96402,2.195703 -1.792034,2.398724 -2.464717,2.574399 -2.982068,2.722728 -3.344088,2.843708 -3.550777,2.937344 -3.602136,3.003632 -3.498162,3.042574 -3.238858,3.054169 -2.824223,3.038417 -2.254257,2.995318 -1.528959,2.924874 -0.648331,2.827082 0.383919,2.702363 1.445218,2.564566 2.387849,2.43038 3.203016,2.300807 3.890723,2.17582 4.450965,2.05547 4.883746,1.9397 5.189064,1.82855 5.366918,1.72199 5.417311,1.62006 5.340246,1.52272 5.13571,1.42999 4.80371,1.34186 4.34425,1.25835 3.75808,1.17945 3.10967,1.10664 2.51268,1.04249 1.97866,0.98726 1.50763,0.94096 1.09957,0.90357 0.7545,0.87511 0.4724,0.85558 0.25328,0.84496 0.0971,0.84326 0.004,0.85049 -0.0262,0.86665 0.007,0.89172 0.10237,0.92571 0.26107,0.96863 0.46044,1.01515 0.64201,1.05139 0.79631,1.07511 0.92333,1.0863 1.02307,1.08495 1.09555,1.07108 1.14076,1.04468 1.15868,1.00575 1.14935,0.95427 1.11273,0.89029 1.04884,0.81376 0.95768,0.72471 0.83925,0.62312 0.69355,0.50902"
           clip-path="url(#p970adb2d74)"
           style="fill:none;stroke:#228b22;stroke-linecap:square;stroke-opacity:0.07"
           id="path32" />
      </g>
    </g>
  </g>
  <defs
     id="defs40">
    <clipPath
       id="p970adb2d74">
      <rect
         x="7.1999998"
         y="7.1999998"
         width="144"
         height="144"
         id="rect37" />
    </clipPath>
  </defs>
</svg>
